# xmcd
#
# Track frame offsets:
#	150
#	10571
#	23688
#	34209
#	45701
#	57943
#	69636
#	79910
#	91174
#	102150
#	117684
#	129681
#	142000
#	153877
#	164724
#	176878
#	187672
#	199554
#	210253
#	224586
#	235146
#	248910
#	263561
#	277726
#
# Disc length: 3886 seconds
#
# Revision: 1
# Processed by: cddbd v1.5.2PL0 Copyright (c) Steve Scherf et al.
# Submitted via: audiograbber 1.83.01
#
DISCID=4d0f2c18
DTITLE=T-Bone Walker  - T-Bone Blues 1949-1954 CD3
DYEAR=1954
DGENRE=Blues 50´s
TTITLE0=The Sun Went Down 
TTITLE1=You Don't Love Me
TTITLE2=Travelin' Blues
TTITLE3=The Hustle Is On
TTITLE4=Baby, You Broke My Heart
TTITLE5=Evil Hearted Woman
TTITLE6=I Walked Away
TTITLE7=No Reason 
TTITLE8=Look Me In The Eye
TTITLE9=Too Lazy 
TTITLE10=Alimony Blues
TTITLE11=Life Is Too Short 
TTITLE12=You Don't Understand
TTITLE13=Welcome Blues 
TTITLE14=I Get So Weary 
TTITLE15=You Just Wanted To Use Me
TTITLE16=Tell Me What's The Reason 
TTITLE17=I'm About To Lose My Mind
TTITLE18=Cold Cold Feeling
TTITLE19=News For You Baby 
TTITLE20=Get These Blues Off Me 
TTITLE21=I Got The Blues Again
TTITLE22=Through With Women 
TTITLE23=Street Walkin' Woman
EXTD=
EXTT0=
EXTT1=
EXTT2=
EXTT3=
EXTT4=
EXTT5=
EXTT6=
EXTT7=
EXTT8=
EXTT9=
EXTT10=
EXTT11=
EXTT12=
EXTT13=
EXTT14=
EXTT15=
EXTT16=
EXTT17=
EXTT18=
EXTT19=
EXTT20=
EXTT21=
EXTT22=
EXTT23=
PLAYORDER=
